<?xml version="1.0" standalone="no"?>
<!DOCTYPE svg PUBLIC "-//W3C//DTD SVG 20010904//EN"
 "http://www.w3.org/TR/2001/REC-SVG-20010904/DTD/svg10.dtd">
<svg version="1.0" xmlns="http://www.w3.org/2000/svg"
 width="1653.000000pt" height="1653.000000pt" viewBox="0 0 1653.000000 1653.000000"
 preserveAspectRatio="xMidYMid meet">
<metadata>
Created by potrace 1.14, written by Peter Selinger 2001-2017
</metadata>
<g transform="translate(0.000000,1653.000000) scale(0.100000,-0.100000)"
fill="#000000" stroke="none">
<path d="M10825 15529 c-44 -8 -75 -21 -360 -154 -44 -20 -125 -57 -180 -82
-55 -24 -129 -58 -164 -75 -36 -16 -110 -50 -165 -75 -291 -130 -416 -216
-560 -387 -196 -231 -358 -628 -421 -1031 -15 -96 -35 -260 -41 -332 -3 -43
-8 -91 -10 -108 -2 -16 -6 -280 -9 -585 -12 -1318 -15 -1579 -19 -1650 -35
-539 -145 -868 -363 -1078 -106 -102 -197 -156 -402 -239 -311 -126 -498 -247
-710 -462 -229 -233 -415 -529 -529 -846 -35 -96 -101 -341 -117 -430 -29
-170 -35 -561 -11 -755 49 -392 213 -856 444 -1259 71 -124 226 -362 308 -472
35 -48 64 -89 64 -92 0 -2 -46 -99 -101 -213 -56 -115 -120 -249 -144 -299
-44 -92 -74 -156 -285 -595 -198 -414 -256 -540 -283 -625 -77 -236 -83 -428
-17 -561 48 -97 150 -170 255 -181 45 -5 55 -2 73 17 43 46 41 172 -3 343 -38
147 -46 194 -46 289 0 148 36 257 128 393 72 105 236 442 430 880 63 143 127
288 143 321 l28 62 1096 1 1096 2 1 -673 c1 -370 2 -705 4 -743 10 -243 90
-500 216 -695 42 -65 206 -237 246 -258 31 -17 62 17 563 603 183 215 344 402
358 417 l24 26 -66 63 c-81 76 -119 109 -126 109 -3 0 -35 -48 -73 -105 -37
-58 -78 -112 -92 -121 -13 -9 -50 -18 -82 -21 -46 -3 -64 0 -89 16 -64 40
-108 124 -118 227 -9 86 -14 341 -21 924 -3 283 -8 641 -10 795 -2 154 -7 458
-10 675 -3 217 -8 496 -10 620 -19 1095 -24 1715 -12 1775 10 54 68 173 117
243 56 81 191 207 290 273 167 110 318 180 575 265 l160 53 6 63 c3 35 5 536
5 1113 -1 1155 3 1060 -59 1195 -125 269 -458 494 -851 576 -101 21 -107 23
-99 39 5 7 44 52 88 100 102 112 195 228 291 363 67 93 98 143 188 295 132
224 251 552 280 777 4 25 9 63 12 84 8 49 7 264 0 314 -3 20 -8 57 -12 81 -8
64 -49 218 -79 296 -121 322 -341 505 -625 518 -41 1 -93 0 -115 -4z m-475
-427 c308 -208 537 -485 629 -759 70 -209 67 -489 -10 -738 -65 -210 -228
-494 -422 -736 -92 -114 -274 -302 -401 -415 l-79 -71 27 -114 c15 -63 30
-119 34 -125 4 -7 94 54 246 167 131 99 244 179 252 179 33 0 175 -53 229 -85
139 -83 227 -217 245 -370 5 -44 9 -537 10 -1096 l0 -1016 -332 -260 -332
-261 -71 72 c-238 241 -690 412 -1325 501 -14 2 -52 7 -85 10 -82 9 -140 16
-142 19 -1 1 14 10 35 21 150 77 336 234 435 365 168 222 285 491 352 805 22
101 24 241 30 1905 2 696 6 1285 9 1308 11 95 18 120 52 187 89 175 251 347
463 494 41 28 79 51 85 51 6 0 36 -17 66 -38z m-1725 -5962 c284 -33 634 -171
790 -312 l48 -44 -268 -484 c-147 -267 -373 -676 -503 -910 -129 -234 -245
-443 -257 -465 -111 -204 -687 -1243 -695 -1255 -8 -12 -18 -6 -61 35 -231
226 -469 609 -573 925 -76 231 -104 410 -104 655 1 234 32 430 105 660 196
616 558 1028 1019 1160 155 44 316 55 499 35z m1144 -574 l171 -169 0 -1179 0
-1178 -895 0 c-492 0 -895 3 -895 6 0 7 158 312 170 329 4 6 38 69 75 140 37
72 71 135 75 140 4 6 35 64 70 130 34 66 91 172 125 235 34 63 80 149 102 190
22 41 72 134 110 205 39 72 123 229 188 350 65 121 133 249 153 285 59 111
108 202 147 275 194 366 224 419 230 413 2 -1 81 -79 174 -172z"/>
<path d="M7653 15343 c-189 -216 -490 -592 -685 -859 -983 -1341 -1712 -2828
-2173 -4434 -58 -204 -172 -637 -190 -727 -2 -10 -24 -115 -48 -233 -39 -183
-66 -319 -92 -465 -13 -77 -65 -406 -70 -450 -4 -27 -8 -57 -10 -65 -2 -8 -7
-42 -10 -75 -4 -33 -8 -67 -10 -75 -2 -8 -7 -51 -11 -95 -3 -44 -8 -82 -9 -85
-2 -3 -6 -43 -10 -90 -3 -47 -8 -92 -10 -100 -2 -8 -7 -58 -10 -110 -4 -52 -9
-108 -11 -125 -2 -16 -6 -84 -9 -150 -4 -66 -8 -130 -10 -143 -22 -144 -23
-1260 -1 -1452 3 -19 7 -87 11 -150 3 -63 8 -133 10 -155 2 -22 7 -69 10 -105
6 -71 43 -413 51 -470 2 -19 6 -48 9 -65 3 -16 7 -47 10 -68 3 -20 7 -54 10
-75 6 -39 11 -76 20 -127 3 -16 9 -57 15 -90 32 -210 95 -522 161 -800 52
-220 87 -355 88 -343 1 4 -15 108 -34 230 -48 304 -73 489 -95 701 -24 227
-29 286 -35 362 -4 44 -8 98 -10 120 -2 22 -7 79 -11 126 l-6 87 48 6 c27 3
114 8 194 11 80 3 179 8 220 10 41 2 161 7 265 10 105 4 219 8 255 10 36 2
153 7 260 11 107 3 209 8 225 9 17 2 70 3 119 4 49 1 87 4 84 7 -7 7 -59 11
-263 19 -88 4 -182 8 -210 10 -27 2 -122 6 -210 10 -176 6 -330 13 -475 20
-52 3 -158 7 -235 10 -147 6 -278 15 -283 20 -17 16 -24 1178 -7 1193 6 6 89
13 185 16 96 4 220 9 275 11 55 3 163 7 240 10 146 5 346 13 500 20 50 2 167
7 260 10 94 4 190 8 213 10 76 6 59 15 -29 16 -46 0 -102 2 -124 3 -22 2 -132
6 -245 10 -113 4 -234 9 -270 11 -36 3 -144 7 -240 10 -96 3 -213 8 -260 10
-47 3 -150 7 -230 10 -80 3 -176 8 -214 11 l-68 6 6 92 c4 50 9 127 11 171 13
218 25 378 41 545 31 341 43 418 63 424 9 3 68 8 131 11 63 3 144 8 180 10
127 8 247 15 370 20 69 3 145 8 170 10 25 2 104 7 175 10 72 3 138 7 147 9 27
3 30 12 5 12 -46 1 -293 15 -327 19 -19 2 -96 6 -170 10 -74 3 -164 8 -200 10
-36 2 -121 7 -190 11 -69 4 -138 8 -155 9 -16 2 -54 3 -84 4 l-53 1 6 51 c8
67 26 191 41 289 2 14 9 57 15 95 6 39 13 81 15 95 2 14 7 41 10 60 25 151 98
525 114 588 12 42 12 42 59 43 26 1 61 2 77 4 17 1 100 6 185 9 85 4 173 9
195 11 22 2 110 7 195 11 85 3 173 8 195 9 22 2 108 6 192 10 183 9 257 22
143 25 -41 2 -88 4 -105 5 -16 1 -95 5 -175 9 -80 4 -172 9 -205 11 -33 2
-114 6 -180 9 -66 4 -165 9 -220 12 -185 11 -210 12 -264 13 l-54 1 7 39 c10
67 107 452 211 846 39 150 96 339 104 347 11 12 77 16 366 23 154 3 327 8 385
10 58 3 211 7 340 10 129 3 296 7 370 10 74 2 275 7 445 11 171 3 333 8 360 9
28 2 103 4 168 4 64 1 117 5 117 9 0 4 -60 9 -132 11 -73 1 -164 4 -203 6 -38
2 -189 6 -335 9 -146 4 -319 9 -385 11 -66 2 -232 7 -370 10 -137 3 -299 8
-360 10 -60 2 -216 7 -345 11 -340 9 -349 9 -356 17 -11 11 10 86 91 327 100
296 254 715 314 853 l20 47 63 1 c35 1 79 3 98 4 19 2 121 6 225 10 105 3 231
8 280 10 50 2 194 6 320 10 127 4 262 8 300 10 39 2 183 7 320 11 138 4 273 8
300 9 28 2 110 3 184 4 237 2 139 15 -199 26 -96 3 -222 8 -280 10 -58 2 -211
7 -340 10 -129 4 -273 8 -319 10 -46 2 -208 7 -360 11 -152 4 -301 8 -331 9
-30 2 -85 3 -122 4 -53 1 -68 4 -68 16 0 35 314 733 465 1035 45 90 81 150 92
154 26 7 134 14 490 31 157 7 305 14 463 20 74 3 169 8 210 10 77 4 397 18
437 19 23 0 22 8 -1 12 -7 1 -87 5 -177 8 -90 4 -200 9 -244 11 -44 3 -145 7
-225 10 -80 3 -192 8 -250 10 -133 7 -253 12 -455 20 -88 4 -163 9 -167 12 -9
5 16 57 130 263 47 85 96 175 110 200 253 462 738 1217 1064 1658 37 50 66 92
64 92 -2 0 -31 -30 -63 -67z"/>
<path d="M7720 10370 c-13 -8 -12 -10 3 -10 9 0 17 5 17 10 0 12 -1 12 -20 0z"/>
<path d="M6218 6233 c7 -3 16 -2 19 1 4 3 -2 6 -13 5 -11 0 -14 -3 -6 -6z"/>
<path d="M7948 2342 c-31 -2 -48 -8 -48 -16 0 -9 9 -12 28 -9 15 2 32 4 37 3
6 0 375 -2 820 -4 679 -3 935 1 905 13 -3 2 -14 5 -25 8 -22 6 -1639 11 -1717
5z"/>
<path d="M8503 1808 c-5 -7 -16 -29 -23 -48 -7 -19 -19 -48 -26 -65 -7 -16
-42 -106 -79 -200 -36 -93 -72 -183 -79 -200 -8 -16 -27 -66 -44 -110 -63
-164 -143 -351 -160 -374 -27 -36 -65 -62 -103 -70 -25 -5 -35 -13 -37 -29
l-3 -22 195 0 c150 0 196 3 196 13 0 23 -15 34 -54 40 -21 3 -49 13 -63 23
-23 15 -25 20 -19 66 4 28 23 94 42 147 20 53 37 102 39 109 3 9 51 12 194 12
l190 0 19 -52 c11 -29 35 -99 53 -156 39 -119 36 -131 -32 -147 -34 -8 -45
-16 -47 -33 l-3 -22 211 0 c210 0 211 0 208 21 -2 17 -15 25 -53 34 -31 8 -59
24 -75 42 -16 18 -66 138 -139 333 -237 637 -262 700 -281 700 -10 0 -22 -6
-27 -12z m61 -431 c36 -103 66 -192 66 -197 0 -12 -287 -14 -294 -2 -3 5 29
100 71 211 47 124 79 198 84 189 4 -7 37 -97 73 -201z"/>
<path d="M5850 1792 c0 -15 8 -23 28 -28 15 -3 43 -11 62 -18 65 -22 65 -23
65 -491 0 -231 -3 -432 -8 -447 -9 -35 -42 -56 -98 -66 -36 -6 -45 -12 -47
-31 l-4 -23 249 6 c136 4 280 11 318 17 174 24 304 150 310 299 5 135 -67 218
-229 265 l-58 17 56 32 c102 56 150 118 162 209 9 62 -17 134 -64 179 -75 73
-145 87 -484 95 l-258 6 0 -21z m545 -78 c57 -29 95 -88 102 -155 11 -114 -37
-193 -137 -223 -59 -18 -206 -22 -212 -6 -1 5 -1 93 2 196 6 224 2 217 125
212 57 -2 92 -9 120 -24z m-21 -479 c71 -19 133 -59 159 -102 27 -47 35 -170
13 -226 -19 -52 -62 -98 -114 -123 -52 -26 -220 -27 -245 -2 -26 26 -35 96
-37 282 0 93 -3 173 -6 178 -9 14 169 9 230 -7z"/>
<path d="M10590 1770 c-75 -14 -141 -62 -201 -144 -49 -66 -28 -93 27 -35 75
79 176 107 257 71 59 -26 87 -70 87 -135 0 -98 -41 -148 -176 -217 -49 -25
-89 -50 -89 -55 0 -6 43 -12 95 -15 108 -6 154 -24 200 -76 82 -93 59 -285
-44 -368 -30 -25 -48 -31 -102 -34 -75 -5 -131 12 -209 65 l-50 33 -27 -32
c-32 -39 -33 -46 -12 -76 40 -57 171 -87 275 -62 128 30 278 139 322 232 24
52 39 136 31 183 -15 91 -63 147 -171 198 -35 16 -63 32 -62 35 0 4 24 25 52
48 64 50 94 93 102 148 9 61 -9 116 -52 161 -64 65 -160 93 -253 75z"/>
</g>
</svg>
